<svg xmlns="http://www.w3.org/2000/svg" width="32" height="32" viewBox="0 0 32 32">
    <g fill="none" fill-rule="evenodd">
        <g>
            <g>
                <g transform="translate(-722.000000, -364.000000) translate(706.000000, 356.000000) translate(16.000000, 8.000000)">
                    <rect width="31" height="31" x=".5" y=".5" stroke="#FFB40A" rx="2"/>
                    <path fill="#FFB40A" d="M16 20.8l-4.218 2.576c-.471.288-1.087.14-1.375-.332-.137-.225-.18-.496-.119-.753l1.147-4.808-3.754-3.215c-.42-.36-.468-.99-.109-1.41.172-.2.417-.325.68-.346l4.927-.395 1.898-4.564c.212-.51.797-.751 1.307-.539.244.101.438.295.54.54l1.897 4.563 4.927.395c.55.044.961.526.917 1.076-.021.264-.146.508-.346.68l-3.754 3.215 1.147 4.808c.128.537-.204 1.076-.74 1.205-.258.06-.529.018-.754-.12L16 20.8z"/>
                </g>
            </g>
        </g>
    </g>
</svg>
